<svg width="243" height="63" viewBox="0 0 243 63" fill="none" xmlns="http://www.w3.org/2000/svg">
<g clip-path="url(#clip0_90_57)">
<path d="M14.95 60.9901V12.4501H0V0.860107H43.37V12.4501H28.42V60.9901H14.95Z" fill="#231815"/>
<path d="M61.14 24.9001H79.3V36.0201H61.14V49.4101H83.53V61.0001H47.99V0.860107H82.13V12.4501H61.15V24.9001H61.14Z" fill="#231815"/>
<path d="M117.35 45.3301C114.53 39.4601 112.65 38.1301 108.82 38.1301H102.79V60.9901H90.11V0.860107H105.46C120.02 0.860107 131.69 3.29011 131.69 18.0101C131.69 25.9201 128.09 30.6101 122.22 32.6501C125.12 34.1401 126.92 36.4101 127.62 37.7401C129.97 42.1201 135.37 54.1801 138.19 60.9901H123.86C122.45 56.9201 119.4 49.5601 117.36 45.3301H117.35ZM118.53 19.5001C118.53 13.0801 113.28 12.1401 106.86 12.1401H102.79V27.4801H111.87C116.33 27.0101 118.52 23.8001 118.52 19.4901L118.53 19.5001Z" fill="#231815"/>
<path d="M164.4 0.860107H176.77L199.79 60.9901H184.99L180.29 47.7601H159.46L154.92 60.9901H141.38L164.4 0.860107ZM177.4 37.4201L170.12 15.5001L162.76 37.4201H177.4Z" fill="#231815"/>
<path d="M237.05 14.41C233.21 12.61 228.91 11.51 225.62 11.51C222.33 11.51 217.87 12.14 217.87 17.15C217.87 20.2 221.63 22.08 226.25 24.35C234.55 28.42 242.46 32.49 242.46 43.53C242.46 57.94 232.67 62.01 222.65 62.01C215.53 62.01 207.15 60.29 203.31 58.49L206.68 46.28C210.91 48.39 217.17 50.19 221.95 50.19C225 50.19 228.84 49.02 228.84 44.4C228.84 40.95 226.1 38.61 218.66 35.32C210.36 31.64 204.57 28.12 204.57 17.94C204.57 3.06001 216.78 0.0100098 224.14 0.0100098C231.03 0.0100098 236.9 1.26001 240.66 2.83001L237.06 14.42L237.05 14.41Z" fill="#231815"/>
</g>
<defs>
<clipPath id="clip0_90_57">
<rect width="242.45" height="62.01" fill="white"/>
</clipPath>
</defs>
</svg>
